<svg xmlns="http://www.w3.org/2000/svg" viewBox="0 0 607.38 312.1"><defs><style>.cls-1,.cls-2{fill:none;}.cls-1{stroke:#fff;stroke-miterlimit:10;stroke-width:9px;}</style></defs><g id="Слой_2" data-name="Слой 2"><g id="Слой_3" data-name="Слой 3"><path class="cls-1" d="M195.6,176.73l72.78-42a42,42,0,1,0,4.2,31.89"/><path class="cls-1" d="M287.88,176.73l72.77-42a42,42,0,1,0,4.2,31.89"/><path class="cls-1" d="M105.13,177.19c4.83,10.68,18.56,21.37,36.86,21.37s36.57-13.06,36.85-26S160.29,156.05,142,156.05h0c-18.29,0-37.14-3.44-36.85-16.49.28-12.9,18.56-26,36.85-26s32,10.69,36.86,21.37"/><line class="cls-1" x1="378.01" y1="113.32" x2="378.01" y2="198.79"/><path class="cls-1" d="M378,155.69c0-23.4,20.22-42.37,45.17-42.37"/><path class="cls-1" d="M428.53,177.19c4.83,10.68,18.56,21.37,36.86,21.37s36.57-13.06,36.85-26-18.56-16.55-36.85-16.55h0c-18.3,0-37.14-3.44-36.86-16.49.29-12.9,18.56-26,36.86-26s32,10.69,36.85,21.37"/><rect class="cls-2" width="607.38" height="312.1"/></g></g></svg>